<svg width="420" height="160" viewBox="0 0 420 160" fill="none" xmlns="http://www.w3.org/2000/svg">
<path d="M11.6733 20.3632L0.129228 25.2043L42.3954 107.688L54.5911 104.058L11.6733 20.3632ZM74.921 52.8542C78.738 52.8542 81.2516 54.9954 81.2516 62.5363V90H94.4715V57.7883C94.4715 46.3374 89.4442 41.5894 81.4378 41.5894C75.1072 41.5894 70.5455 44.4754 67.0078 47.8269L66.3561 42.6135L54.0672 43.2652C54.7189 53.7852 54.9051 68.2152 54.9051 90H68.1249C68.1249 76.0354 67.9387 64.0259 67.7525 55.0885C69.8938 53.6921 72.2212 52.8542 74.921 52.8542ZM139.286 91.1172L140.496 80.2248C121.691 79.9455 114.708 77.8043 113.219 69.9841L141.613 69.2393C143.289 52.0163 137.052 41.5894 123.552 41.5894C110.984 41.5894 99.9058 52.7611 99.9058 67.4705C99.9058 82.8315 107.819 91.955 139.286 91.1172ZM121.132 52.2956C126.439 52.2956 128.58 55.7402 128.859 61.8846C124.018 61.9777 117.222 62.257 112.939 62.3501C113.405 54.9023 116.105 52.2956 121.132 52.2956ZM173.394 90H185.031C186.428 80.7834 188.755 60.9536 189.5 42.8928H177.211C177.211 54.4368 177.118 62.4432 177.025 75.1044H176.653C175.163 69.7979 172.836 62.6294 171.439 58.1607H164.084C162.781 62.5363 160.547 69.5186 159.057 74.8251H158.685C158.499 62.1639 158.312 54.3437 158.219 42.8928H145.558C146.21 60.9536 148.351 80.7834 149.841 90H161.198L167.064 69.6117L173.394 90ZM233.942 90L235.059 80.1317H221.188V24.7388H195.4L194.283 34.2347L207.875 34.9795V80.1317H194.096V90H233.942ZM269.447 36.376L270.285 22.8769H256.413L255.575 36.376H269.447ZM283.598 90L284.715 80.1317H269.54V42.8928H241.704L240.68 52.2956L256.227 53.0404V80.1317H241.052V90H283.598ZM307.838 52.8542C311.655 52.8542 314.168 54.9954 314.168 62.5363V90H327.388V57.7883C327.388 46.3374 322.361 41.5894 314.354 41.5894C308.024 41.5894 303.462 44.4754 299.924 47.8269L299.273 42.6135L286.984 43.2652C287.636 53.7852 287.822 68.2152 287.822 90H301.042C301.042 76.0354 300.855 64.0259 300.669 55.0885C302.81 53.6921 305.138 52.8542 307.838 52.8542ZM372.203 91.1172L373.413 80.2248C354.607 79.9455 347.625 77.8043 346.135 69.9841L374.53 69.2393C376.206 52.0163 369.968 41.5894 356.469 41.5894C343.901 41.5894 332.822 52.7611 332.822 67.4705C332.822 82.8315 340.736 91.955 372.203 91.1172ZM354.049 52.2956C359.355 52.2956 361.496 55.7402 361.776 61.8846C356.935 61.9777 350.138 62.257 345.856 62.3501C346.321 54.9023 349.021 52.2956 354.049 52.2956Z" fill="white"/>
<path d="M60.8603 148.947H65.9076V137.186H72.7679C80.5267 137.186 84.3652 132.499 84.3652 126.324C84.3652 120.166 80.5594 115.495 72.7843 115.495H60.8603V148.947ZM65.9076 132.907V119.823H72.2452C77.2435 119.823 79.2853 122.535 79.2853 126.324C79.2853 130.114 77.2435 132.907 72.3106 132.907H65.9076ZM133.946 132.221C133.946 121.522 127.543 115.037 118.886 115.037C110.196 115.037 103.809 121.522 103.809 132.221C103.809 142.903 110.196 149.405 118.886 149.405C127.543 149.405 133.946 142.92 133.946 132.221ZM128.948 132.221C128.948 140.372 124.636 144.798 118.886 144.798C113.12 144.798 108.824 140.372 108.824 132.221C108.824 124.07 113.12 119.644 118.886 119.644C124.636 119.644 128.948 124.07 128.948 132.221ZM165.673 148.947C175.866 148.947 181.763 142.626 181.763 132.172C181.763 121.767 175.866 115.495 166.016 115.495H154.844V148.947H165.673ZM159.891 144.537V119.905H165.706C173.024 119.905 176.797 124.282 176.797 132.172C176.797 140.094 173.024 144.537 165.396 144.537H159.891ZM230.429 126.373C229.285 119.219 223.683 115.037 216.61 115.037C207.953 115.037 201.566 121.522 201.566 132.221C201.566 142.92 207.92 149.405 216.61 149.405C223.96 149.405 229.334 144.798 230.429 138.183L225.332 138.167C224.467 142.446 220.873 144.798 216.643 144.798C210.909 144.798 206.581 140.404 206.581 132.221C206.581 124.103 210.893 119.644 216.659 119.644C220.922 119.644 224.499 122.045 225.332 126.373H230.429ZM253.899 148.947L256.97 140.094H270.037L273.092 148.947H278.45L266.411 115.495H260.58L248.542 148.947H253.899ZM258.44 135.847L263.373 121.571H263.634L268.567 135.847H258.44ZM315.861 124.282H320.729C320.582 118.925 315.845 115.037 309.05 115.037C302.337 115.037 297.191 118.876 297.191 124.642C297.191 129.297 300.524 132.025 305.897 133.479L309.85 134.557C313.428 135.504 316.188 136.68 316.188 139.653C316.188 142.92 313.068 145.076 308.772 145.076C304.885 145.076 301.651 143.345 301.357 139.702H296.293C296.62 145.762 301.308 149.503 308.805 149.503C316.662 149.503 321.186 145.37 321.186 139.702C321.186 133.675 315.812 131.339 311.565 130.293L308.299 129.444C305.685 128.774 302.206 127.549 302.222 124.348C302.222 121.506 304.819 119.399 308.936 119.399C312.774 119.399 315.502 121.195 315.861 124.282ZM340.173 119.84H350.594V148.947H355.625V119.84H366.063V115.495H340.173V119.84Z" fill="white"/>
</svg>
